<svg xmlns="http://www.w3.org/2000/svg" viewBox="0 0 116 29" xml:space="preserve"><linearGradient id="play-a" gradientUnits="userSpaceOnUse" x1="11.83" y1="27.05" x2="-4.96" y2="10.27" gradientTransform="matrix(1 0 0 -1 0 30)"><stop offset="0" style="stop-color:#00a0ff"></stop><stop offset="0.01" style="stop-color:#00a1ff"></stop><stop offset="0.26" style="stop-color:#00beff"></stop><stop offset="0.51" style="stop-color:#00d2ff"></stop><stop offset="0.76" style="stop-color:#00dfff"></stop><stop offset="1" style="stop-color:#00e3ff"></stop></linearGradient><path fill="url(#play-a)" d="M.5 1.8c-.3.3-.5.8-.5 1.4v22.1c0 .6.2 1.1.5 1.4l.1.1L13 14.4v-.2L.5 1.8z"></path><linearGradient id="play-b" gradientUnits="userSpaceOnUse" x1="23.86" y1="15.76" x2="-0.33" y2="15.76" gradientTransform="matrix(1 0 0 -1 0 30)"><stop offset="0" style="stop-color:#ffe000"></stop><stop offset="0.41" style="stop-color:#ffbd00"></stop><stop offset="0.78" style="stop-color:orange"></stop><stop offset="1" style="stop-color:#ff9c00"></stop></linearGradient><path fill="url(#play-b)" d="M17.1 18.5 13 14.4v-.2l4.1-4.1.1.1 4.9 2.8c1.4.8 1.4 2.1 0 2.9l-5 2.6z"></path><linearGradient id="play-c" gradientUnits="userSpaceOnUse" x1="14.85" y1="13.46" x2="-7.9" y2="-9.29" gradientTransform="matrix(1 0 0 -1 0 30)"><stop offset="0" style="stop-color:#ff3a44"></stop><stop offset="1" style="stop-color:#c31162"></stop></linearGradient><path fill="url(#play-c)" d="m17.1 18.5-4.2-4.2L.5 26.7c.5.5 1.2.5 2.1.1l14.5-8.3z"></path><linearGradient id="play-d" gradientUnits="userSpaceOnUse" x1="-2.67" y1="35.58" x2="7.49" y2="25.42" gradientTransform="matrix(1 0 0 -1 0 30)"><stop offset="0" style="stop-color:#32a071"></stop><stop offset="0.07" style="stop-color:#2da771"></stop><stop offset="0.48" style="stop-color:#15cf74"></stop><stop offset="0.8" style="stop-color:#06e775"></stop><stop offset="1" style="stop-color:#00f076"></stop></linearGradient><path fill="url(#play-d)" d="M17.1 10 2.5 1.7c-.8-.5-1.6-.4-2 .1L13 14.3l4.1-4.3z"></path><path opacity="0.2" d="M17.1 18.4 2.5 26.6c-.8.5-1.5.4-2 0l-.1.1.1.1c.5.4 1.2.5 2 0l14.6-8.4z"></path><path opacity="0.12" d="M.5 26.6c-.3-.4-.5-.8-.5-1.4v.1c0 .6.2 1.1.5 1.4v-.1zM22 15.5l-5 2.8.1.1 4.9-2.8c.7-.4 1-.9 1-1.4 0 .5-.3 1-1 1.3z"></path><path opacity="0.25" d="m2.5 1.9 19.5 11c.6.4 1 .8 1 1.3 0-.5-.3-1-1-1.4L2.5 1.7C1.1.9 0 1.6 0 3.2v.1c0-1.6 1.1-2.2 2.5-1.4z"></path><path d="m115.9 16.1-5.1 11.8h-1.9l1.9-4.2-3.3-7.6h2l2.2 5.4h.1l2.1-5.4h2zm-20-.6c0 2.4-2 3.9-4.1 3.9h-2.6v4.7h-1.9V11.6h4.5c2.1 0 4.1 1.5 4.1 3.9zm-1.8 0c0-1-.8-2.1-2.2-2.1h-2.7v4.3h2.7c1.4 0 2.2-1.2 2.2-2.2zm13.1 3.8v4.8h-1.8v-1h-.1c-.4.7-1.1 1.2-2.4 1.2-1.6 0-3.1-1.1-3.1-2.8 0-1.8 1.8-2.8 3.6-2.8.9 0 1.6.3 1.9.5v-.1c0-1-1-1.6-2-1.6-.7 0-1.4.2-1.7.9l-1.7-.7c.6-1.3 2-1.9 3.3-1.9 2.4.1 4 1.3 4 3.5zm-1.8 1.4c-.5-.2-.9-.4-1.7-.4-.9 0-2 .4-2 1.3 0 .8.9 1.1 1.5 1.1 1.1 0 2.1-.8 2.2-2zm-52.3-.6c0 2.4-1.9 4.3-4.3 4.3s-4.3-1.8-4.3-4.3 1.9-4.3 4.3-4.3 4.3 1.9 4.3 4.3zm-1.8 0c0-1.5-1.1-2.6-2.4-2.6-1.3 0-2.4 1-2.4 2.6 0 1.5 1.1 2.6 2.4 2.6s2.4-1.1 2.4-2.6zm-13.5-2.9V19h4.3c-.1 1-.5 1.8-1 2.3-.6.6-1.6 1.3-3.3 1.3-2.7 0-4.7-2.1-4.7-4.8a4.72 4.72 0 0 1 8-3.5l1.3-1.3a6.4 6.4 0 0 0-4.5-1.8c-3.6 0-6.7 3-6.7 6.6 0 3.6 3.1 6.6 6.7 6.6 2 0 3.4-.6 4.6-1.9 1.2-1.2 1.6-2.9 1.6-4.2 0-.4 0-.8-.1-1.1h-6.2zm24.6 2.9c0 2.4-1.9 4.3-4.3 4.3a4.2 4.2 0 0 1-4.3-4.3c0-2.5 1.9-4.3 4.3-4.3 2.4.1 4.3 1.9 4.3 4.3zm-1.8 0c0-1.5-1.1-2.6-2.4-2.6s-2.4 1-2.4 2.6c0 1.5 1.1 2.6 2.4 2.6s2.4-1.1 2.4-2.6zm22.7-1-5.7 2.4c.4.9 1.1 1.3 2.1 1.3s1.6-.5 2.1-1.2l1.5 1a4.18 4.18 0 0 1-7.7-2.4c0-2.5 1.8-4.3 4-4.3s3.3 1.8 3.6 2.7l.1.5zm-2.2-.7c-.2-.5-.8-.9-1.6-.9-1 0-2.3.8-2.2 2.5l3.8-1.6zM97 24.1h1.9V11.6H97v12.5zm-24.3 0h1.9V11.6h-1.9v12.5zm-3.1-8h1.8v7.6c0 3.1-1.9 4.4-4 4.4s-3.3-1.4-3.8-2.5l1.6-.7c.3.7 1 1.5 2.1 1.5 1.4 0 2.3-.9 2.3-2.5v-.6h-.1c-.4.5-1.2 1-2.2 1-2.1 0-4.1-1.9-4.1-4.2 0-2.4 1.9-4.3 4.1-4.3 1 0 1.8.5 2.2 1h.1v-.7zm.1 4c0-1.5-1-2.6-2.3-2.6-1.3 0-2.4 1.1-2.4 2.6s1.1 2.6 2.4 2.6c1.3 0 2.3-1.1 2.3-2.6zM59.3 6.4c-.6-.6-.9-1.3-.9-2.2s.3-1.6.9-2.2c.6-.7 1.3-1 2.2-1 .9 0 1.6.3 2.2.9.6.6.9 1.3.9 2.2 0 .9-.3 1.6-.9 2.2-.6.6-1.3.9-2.2.9-.9.1-1.6-.2-2.2-.8zm-.1-2.2c0 .7.2 1.3.7 1.7.4.5 1 .7 1.6.7s1.2-.2 1.6-.7c.4-.4.7-1 .7-1.7s-.2-1.3-.7-1.7c-.4-.5-1-.7-1.6-.7s-1.2.2-1.6.7c-.5.4-.7 1-.7 1.7zM34.5 7.3c.9 0 1.6-.3 2.2-.9.5-.5.7-1.2.7-2v-.5h-2.9v.7h2.2c0 .5-.2.9-.5 1.2-.4.4-1 .7-1.7.7-.6 0-1.2-.2-1.6-.7-.5-.4-.7-1-.7-1.7s.2-1.3.7-1.7c.5-.4 1-.7 1.6-.7.7 0 1.2.2 1.6.7l.6-.4c-.2-.3-.5-.5-.9-.7-.4-.2-.8-.3-1.3-.3-.9 0-1.6.3-2.2.9-.6.6-.9 1.3-.9 2.2 0 .9.3 1.6.9 2.2.6.7 1.4 1 2.2 1zm7.6-.9h-2.7V4.5h2.5v-.7h-2.5V1.9h2.7v-.7h-3.5v6h3.5v-.8zm3.3.8V1.9H47v-.7h-4.1v.7h1.7v5.3h.8zm5.4-6H50v6h.8v-6zm3.4 6V1.9h1.7v-.7h-4.1v.7h1.7v5.3h.7zm12.2-3.8V2.2l3.1 4.9h.8v-6h-.8v4.7l-2.9-4.7h-.9v6h.8V3.4z"></path></svg>