<svg xmlns="http://www.w3.org/2000/svg" viewBox="0 0 48 48" xml:space="preserve"><path d="M24 0c13.255 0 24 10.745 24 24S37.255 48 24 48 0 37.255 0 24 10.745 0 24 0zm0 12.539c-3.113 0-3.503.013-4.726.069-1.22.056-2.054.25-2.783.533a5.615 5.615 0 0 0-2.03 1.322 5.624 5.624 0 0 0-1.322 2.03c-.283.729-.478 1.563-.533 2.784-.055 1.222-.069 1.611-.069 4.725s.013 3.503.069 4.726c.056 1.22.25 2.054.533 2.783a5.615 5.615 0 0 0 1.322 2.03 5.626 5.626 0 0 0 2.03 1.322c.729.283 1.563.478 2.783.533 1.223.055 1.612.069 4.726.069 3.113 0 3.503-.013 4.726-.069 1.22-.056 2.054-.25 2.783-.533a5.615 5.615 0 0 0 2.03-1.322 5.626 5.626 0 0 0 1.322-2.03c.283-.729.478-1.563.533-2.783.055-1.223.069-1.612.069-4.726s-.013-3.503-.069-4.726c-.056-1.22-.25-2.054-.533-2.783a5.615 5.615 0 0 0-1.322-2.03 5.624 5.624 0 0 0-2.03-1.322c-.729-.283-1.563-.478-2.784-.533-1.222-.056-1.611-.069-4.725-.069zm-.001 15.288a3.831 3.831 0 0 1-2.705-1.12 3.823 3.823 0 0 1 0-5.41 3.823 3.823 0 0 1 5.409 0 3.825 3.825 0 0 1-2.704 6.53zm0-9.716a5.89 5.89 0 1 0 0 11.782 5.89 5.89 0 0 0 0-11.782zm7.606-.107a1.394 1.394 0 0 1-2.378.985 1.393 1.393 0 1 1 2.378-.985z"></path></svg>