<svg xmlns="http://www.w3.org/2000/svg" viewBox="0 0 48 48" xml:space="preserve"><path d="M24 0C10.745 0 0 10.745 0 24s10.745 24 24 24 24-10.745 24-24S37.255 0 24 0zm11.165 21.719a10.473 10.473 0 0 1-6.122-1.969v8.953c0 4.474-3.638 8.109-8.102 8.109a8.084 8.084 0 0 1-5.923-2.586l-.008-.005a8.08 8.08 0 0 1-2.175-5.52c0-4.408 3.531-8.002 7.906-8.097v.008l.01-.014c.065 0 .125-.006.19-.006.366.001.732.027 1.094.077v4.499a3.694 3.694 0 0 0-1.094-.173 3.703 3.703 0 0 0-3.697 3.7 3.662 3.662 0 0 0 .701 2.16l-.01.006a3.712 3.712 0 0 0 3.002 1.54 3.702 3.702 0 0 0 3.691-3.564l.006-17.65h4.413a6.087 6.087 0 0 0 1.503 4.015 1.53 1.53 0 0 0-.053-.033c.016.011.03.023.046.033a6.121 6.121 0 0 0 3.334 1.975l.005.002c.41.089.838.137 1.283.137v4.403z"></path></svg>