<svg xmlns="http://www.w3.org/2000/svg" viewBox="0 0 48 48" xml:space="preserve"><path d="M24 0c13.255 0 24 10.745 24 24S37.255 48 24 48 0 37.255 0 24 10.745 0 24 0zm12 16.368a9.663 9.663 0 0 1-2.827.794 5.042 5.042 0 0 0 2.165-2.794 9.687 9.687 0 0 1-3.127 1.225A4.867 4.867 0 0 0 28.617 14c-2.719 0-4.923 2.261-4.923 5.05 0 .395.044.778.127 1.149-4.094-.211-7.72-2.222-10.149-5.276a5.143 5.143 0 0 0-.666 2.538c0 1.751.87 3.298 2.19 4.203a4.82 4.82 0 0 1-2.23-.632v.065c0 2.446 1.696 4.487 3.95 4.951a4.84 4.84 0 0 1-2.224.087c.627 2.005 2.445 3.466 4.6 3.505a9.725 9.725 0 0 1-7.291 2.092A13.668 13.668 0 0 0 19.547 34c9.058 0 14.01-7.693 14.01-14.364 0-.217-.005-.436-.015-.652a10.144 10.144 0 0 0 2.455-2.612l.003-.004z"></path></svg>